<?xml version="1.0" encoding="utf-8"?>
<!-- Uploaded to: SVG Repo, www.svgrepo.com, Generator: SVG Repo Mixer Tools -->
<svg width="800px" height="800px" viewBox="0 0 1024 1024" class="icon"  version="1.1" xmlns="http://www.w3.org/2000/svg"><path d="M709.919 792.983a29.75 29.75 0 0 1-11.302-2.231l-359.96-147.277c-15.27-6.248-22.582-23.682-16.334-38.952 6.25-15.268 23.697-22.575 38.952-16.332l359.961 147.277c15.269 6.248 22.582 23.683 16.334 38.952-4.733 11.563-15.89 18.563-27.651 18.563zM349.973 438.535c-11.87 0-23.093-7.125-27.752-18.828-6.103-15.319 1.371-32.695 16.699-38.791l316.377-125.979c15.341-6.117 32.695 1.378 38.791 16.698 6.103 15.32-1.371 32.696-16.697 38.792L361.012 436.406a29.77 29.77 0 0 1-11.039 2.129z" fill="#FF3B30" /><path d="M709.914371 904.90686a146.491 146.491 0 1 0 207.165943-207.173175 146.491 146.491 0 1 0-207.165943 207.173175Z" fill="#FF3B30" /><path d="M666.33725 326.270224a146.491 146.491 0 1 0 207.165943-207.173175 146.491 146.491 0 1 0-207.165943 207.173175Z" fill="#FF3B30" /><path d="M123.797114 656.614026a204.169 204.169 0 1 0 288.733529-288.743608 204.169 204.169 0 1 0-288.733529 288.743608Z" fill="#FF3B30" /><path d="M917.094 697.735a147.93 147.93 0 0 0-11.478-10.315c46.64 57.534 43.214 142.167-10.313 195.694-53.527 53.527-138.161 56.953-195.692 10.315a148.244 148.244 0 0 0 10.313 11.476c57.208 57.209 149.962 57.208 207.17 0 57.207-57.208 57.207-149.961 0-207.17zM873.512 119.095a147.529 147.529 0 0 0-11.478-10.314c46.64 57.533 43.214 142.165-10.313 195.692C798.194 358 713.56 361.426 656.029 314.787a148.06 148.06 0 0 0 10.313 11.476c57.208 57.21 149.962 57.208 207.17 0 57.208-57.207 57.208-149.958 0-207.168zM412.539 367.874c-3.681-3.678-7.568-7.007-11.448-10.344 69.04 80.216 65.711 201.238-10.343 277.292s-197.078 79.383-277.292 10.344c3.336 3.88 6.666 7.767 10.341 11.447 79.736 79.735 209.007 79.733 288.742 0 79.731-79.734 79.736-209.002 0-288.739z" fill="" /></svg>